<?xml version="1.0" encoding="UTF-8"?>
<svg version="1.1" xmlns="http://www.w3.org/2000/svg" width="222" height="238">
<path d="M0 0 C73.26 0 146.52 0 222 0 C222 78.54 222 157.08 222 238 C148.74 238 75.48 238 0 238 C0 159.46 0 80.92 0 0 Z " fill="#969695" transform="translate(0,0)"/>
<path d="M0 0 C8.58 0 17.16 0 26 0 C26 0.66 26 1.32 26 2 C28.64 2 31.28 2 34 2 C34 2.66 34 3.32 34 4 C34.66 4 35.32 4 36 4 C36 4.66 36 5.32 36 6 C37.32 6 38.64 6 40 6 C40 6.66 40 7.32 40 8 C41.32 8 42.64 8 44 8 C44 8.66 44 9.32 44 10 C45.32 10 46.64 10 48 10 C48 10.66 48 11.32 48 12 C49.32 12 50.64 12 52 12 C52 15.3 52 18.6 52 22 C51.34 22 50.68 22 50 22 C50 22.66 50 23.32 50 24 C47.36 24 44.72 24 42 24 C42 23.34 42 22.68 42 22 C41.34 22 40.68 22 40 22 C40 21.34 40 20.68 40 20 C38.68 20 37.36 20 36 20 C36 19.34 36 18.68 36 18 C34.68 18 33.36 18 32 18 C32 17.34 32 16.68 32 16 C29.36 16 26.72 16 24 16 C24 15.34 24 14.68 24 14 C15.42 14 6.84 14 -2 14 C-2 14.66 -2 15.32 -2 16 C-2.66 16 -3.32 16 -4 16 C-4 16.66 -4 17.32 -4 18 C-5.98 18 -7.96 18 -10 18 C-10 18.66 -10 19.32 -10 20 C-11.32 20 -12.64 20 -14 20 C-14 20.66 -14 21.32 -14 22 C-14.66 22 -15.32 22 -16 22 C-16 22.66 -16 23.32 -16 24 C-16.66 24 -17.32 24 -18 24 C-18 24.66 -18 25.32 -18 26 C-18.66 26 -19.32 26 -20 26 C-20 26.66 -20 27.32 -20 28 C-20.66 28 -21.32 28 -22 28 C-22 28.66 -22 29.32 -22 30 C-22.66 30 -23.32 30 -24 30 C-24 30.66 -24 31.32 -24 32 C-24.66 32 -25.32 32 -26 32 C-26 33.32 -26 34.64 -26 36 C-26.66 36 -27.32 36 -28 36 C-28 37.98 -28 39.96 -28 42 C-28.66 42 -29.32 42 -30 42 C-30 45.3 -30 48.6 -30 52 C-30.66 52 -31.32 52 -32 52 C-32 54.64 -32 57.28 -32 60 C-31.34 60 -30.68 60 -30 60 C-30 63.96 -30 67.92 -30 72 C-29.34 72 -28.68 72 -28 72 C-28 73.98 -28 75.96 -28 78 C-27.34 78 -26.68 78 -26 78 C-26 79.32 -26 80.64 -26 82 C-25.34 82 -24.68 82 -24 82 C-24 82.66 -24 83.32 -24 84 C-23.34 84 -22.68 84 -22 84 C-22 85.32 -22 86.64 -22 88 C-21.34 88 -20.68 88 -20 88 C-20 88.66 -20 89.32 -20 90 C-19.34 90 -18.68 90 -18 90 C-18 90.66 -18 91.32 -18 92 C-17.34 92 -16.68 92 -16 92 C-16 92.66 -16 93.32 -16 94 C-15.34 94 -14.68 94 -14 94 C-14 94.66 -14 95.32 -14 96 C-12.68 96 -11.36 96 -10 96 C-10 96.66 -10 97.32 -10 98 C-8.68 98 -7.36 98 -6 98 C-6 98.66 -6 99.32 -6 100 C-4.02 100 -2.04 100 0 100 C0 100.66 0 101.32 0 102 C5.94 102 11.88 102 18 102 C18 101.34 18 100.68 18 100 C21.96 100 25.92 100 30 100 C30 99.34 30 98.68 30 98 C31.98 98 33.96 98 36 98 C36 97.34 36 96.68 36 96 C37.32 96 38.64 96 40 96 C40 86.1 40 76.2 40 66 C30.1 66 20.2 66 10 66 C10 64.68 10 63.36 10 62 C9.34 62 8.68 62 8 62 C8 60.02 8 58.04 8 56 C8.66 56 9.32 56 10 56 C10 55.34 10 54.68 10 54 C10.66 54 11.32 54 12 54 C12 53.34 12 52.68 12 52 C24.54 52 37.08 52 50 52 C50 53.32 50 54.64 50 56 C50.66 56 51.32 56 52 56 C52 56.66 52 57.32 52 58 C52.66 58 53.32 58 54 58 C54 71.2 54 84.4 54 98 C53.34 98 52.68 98 52 98 C52 99.98 52 101.96 52 104 C51.34 104 50.68 104 50 104 C50 104.66 50 105.32 50 106 C48.68 106 47.36 106 46 106 C46 106.66 46 107.32 46 108 C44.68 108 43.36 108 42 108 C42 108.66 42 109.32 42 110 C40.68 110 39.36 110 38 110 C38 110.66 38 111.32 38 112 C36.02 112 34.04 112 32 112 C32 112.66 32 113.32 32 114 C28.04 114 24.08 114 20 114 C20 114.66 20 115.32 20 116 C12.74 116 5.48 116 -2 116 C-2 115.34 -2 114.68 -2 114 C-3.32 114 -4.64 114 -6 114 C-6 113.34 -6 112.68 -6 112 C-7.98 112 -9.96 112 -12 112 C-12 111.34 -12 110.68 -12 110 C-13.32 110 -14.64 110 -16 110 C-16 109.34 -16 108.68 -16 108 C-17.32 108 -18.64 108 -20 108 C-20 107.34 -20 106.68 -20 106 C-21.32 106 -22.64 106 -24 106 C-24 105.34 -24 104.68 -24 104 C-24.66 104 -25.32 104 -26 104 C-26 103.34 -26 102.68 -26 102 C-26.66 102 -27.32 102 -28 102 C-28 101.34 -28 100.68 -28 100 C-28.66 100 -29.32 100 -30 100 C-30 99.34 -30 98.68 -30 98 C-30.66 98 -31.32 98 -32 98 C-32 97.34 -32 96.68 -32 96 C-32.66 96 -33.32 96 -34 96 C-34 95.34 -34 94.68 -34 94 C-34.66 94 -35.32 94 -36 94 C-36 92.68 -36 91.36 -36 90 C-36.66 90 -37.32 90 -38 90 C-38 89.34 -38 88.68 -38 88 C-38.66 88 -39.32 88 -40 88 C-40 86.02 -40 84.04 -40 82 C-40.66 82 -41.32 82 -42 82 C-42 80.68 -42 79.36 -42 78 C-42.66 78 -43.32 78 -44 78 C-44 74.04 -44 70.08 -44 66 C-44.66 66 -45.32 66 -46 66 C-46 58.74 -46 51.48 -46 44 C-45.34 44 -44.68 44 -44 44 C-44 42.68 -44 41.36 -44 40 C-43.34 40 -42.68 40 -42 40 C-42 38.02 -42 36.04 -42 34 C-41.34 34 -40.68 34 -40 34 C-40 32.68 -40 31.36 -40 30 C-39.34 30 -38.68 30 -38 30 C-38 28.68 -38 27.36 -38 26 C-37.34 26 -36.68 26 -36 26 C-36 24.68 -36 23.36 -36 22 C-35.34 22 -34.68 22 -34 22 C-34 21.34 -34 20.68 -34 20 C-33.34 20 -32.68 20 -32 20 C-32 19.34 -32 18.68 -32 18 C-31.34 18 -30.68 18 -30 18 C-30 17.34 -30 16.68 -30 16 C-29.34 16 -28.68 16 -28 16 C-28 15.34 -28 14.68 -28 14 C-27.34 14 -26.68 14 -26 14 C-26 13.34 -26 12.68 -26 12 C-25.34 12 -24.68 12 -24 12 C-24 11.34 -24 10.68 -24 10 C-22.68 10 -21.36 10 -20 10 C-20 9.34 -20 8.68 -20 8 C-19.34 8 -18.68 8 -18 8 C-18 7.34 -18 6.68 -18 6 C-16.68 6 -15.36 6 -14 6 C-14 5.34 -14 4.68 -14 4 C-12.02 4 -10.04 4 -8 4 C-8 3.34 -8 2.68 -8 2 C-5.36 2 -2.72 2 0 2 C0 1.34 0 0.68 0 0 Z " fill="#E6C06C" transform="translate(89,64)"/>
<path d="M0 0 C3.96 0 7.92 0 12 0 C12 0.66 12 1.32 12 2 C12.66 2 13.32 2 14 2 C14 2.66 14 3.32 14 4 C14.66 4 15.32 4 16 4 C16 6.64 16 9.28 16 12 C14.68 12 13.36 12 12 12 C12 12.66 12 13.32 12 14 C8.7 14 5.4 14 2 14 C2 14.66 2 15.32 2 16 C0.02 16 -1.96 16 -4 16 C-4 16.66 -4 17.32 -4 18 C-5.32 18 -6.64 18 -8 18 C-8 18.66 -8 19.32 -8 20 C-8.66 20 -9.32 20 -10 20 C-10 20.66 -10 21.32 -10 22 C-10.66 22 -11.32 22 -12 22 C-12 22.66 -12 23.32 -12 24 C-12.66 24 -13.32 24 -14 24 C-14 24.66 -14 25.32 -14 26 C-14.66 26 -15.32 26 -16 26 C-16 27.32 -16 28.64 -16 30 C-16.66 30 -17.32 30 -18 30 C-18 47.16 -18 64.32 -18 82 C-18.66 82 -19.32 82 -20 82 C-20 82.66 -20 83.32 -20 84 C-22.64 84 -25.28 84 -28 84 C-28 83.34 -28 82.68 -28 82 C-29.32 82 -30.64 82 -32 82 C-32 56.92 -32 31.84 -32 6 C-31.34 6 -30.68 6 -30 6 C-30 5.34 -30 4.68 -30 4 C-29.34 4 -28.68 4 -28 4 C-28 3.34 -28 2.68 -28 2 C-25.36 2 -22.72 2 -20 2 C-20 2.66 -20 3.32 -20 4 C-19.34 4 -18.68 4 -18 4 C-18 7.3 -18 10.6 -18 14 C-16.68 14 -15.36 14 -14 14 C-14 13.34 -14 12.68 -14 12 C-13.34 12 -12.68 12 -12 12 C-12 11.34 -12 10.68 -12 10 C-11.34 10 -10.68 10 -10 10 C-10 9.34 -10 8.68 -10 8 C-9.34 8 -8.68 8 -8 8 C-8 7.34 -8 6.68 -8 6 C-7.34 6 -6.68 6 -6 6 C-6 5.34 -6 4.68 -6 4 C-5.34 4 -4.68 4 -4 4 C-4 3.34 -4 2.68 -4 2 C-2.68 2 -1.36 2 0 2 C0 1.34 0 0.68 0 0 Z " fill="#E6C06C" transform="translate(193,94)"/>
<path d="M0 0 C0.66 0 1.32 0 2 0 C2 0.66 2 1.32 2 2 C2.66 2 3.32 2 4 2 C4 3.32 4 4.64 4 6 C4.66 6 5.32 6 6 6 C6 6.66 6 7.32 6 8 C6.66 8 7.32 8 8 8 C8 11.3 8 14.6 8 18 C8.66 18 9.32 18 10 18 C10 26.58 10 35.16 10 44 C7.36 44 4.72 44 2 44 C2 44.66 2 45.32 2 46 C0.02 46 -1.96 46 -4 46 C-4 45.34 -4 44.68 -4 44 C-5.98 44 -7.96 44 -10 44 C-10 43.34 -10 42.68 -10 42 C-10.66 41.67 -11.32 41.34 -12 41 C-11 40 -11 40 -8.49609375 39.90234375 C-7.48675781 39.91394531 -6.47742188 39.92554688 -5.4375 39.9375 C-4.42558594 39.94652344 -3.41367188 39.95554688 -2.37109375 39.96484375 C-1.19740234 39.98224609 -1.19740234 39.98224609 0 40 C0 39.34 0 38.68 0 38 C-0.66 38 -1.32 38 -2 38 C-2 36.68 -2 35.36 -2 34 C-1.34 34 -0.68 34 0 34 C0 22.78 0 11.56 0 0 Z " fill="#E9C26A" transform="translate(131,124)"/>
<path d="M0 0 C3.96 0 7.92 0 12 0 C12 0.66 12 1.32 12 2 C12.66 2 13.32 2 14 2 C14 2.66 14 3.32 14 4 C14.66 4 15.32 4 16 4 C16 5.32 16 6.64 16 8 C15.34 8 14.68 8 14 8 C14 7.34 14 6.68 14 6 C12.02 6 10.04 6 8 6 C8 5.34 8 4.68 8 4 C7.34 4 6.68 4 6 4 C6 3.34 6 2.68 6 2 C4.02 2 2.04 2 0 2 C0 1.34 0 0.68 0 0 Z " fill="#D4BC7C" transform="translate(193,94)"/>
<path d="M0 0 C1.32 0 2.64 0 4 0 C4 0.66 4 1.32 4 2 C4.66 2 5.32 2 6 2 C6 2.66 6 3.32 6 4 C5.21753906 4.06058594 4.43507812 4.12117187 3.62890625 4.18359375 C2.11103516 4.30927734 2.11103516 4.30927734 0.5625 4.4375 C-0.44683594 4.51871094 -1.45617187 4.59992188 -2.49609375 4.68359375 C-4.93640779 4.73211468 -4.93640779 4.73211468 -6 6 C-8.01964199 6.07244053 -10.04167124 6.08377188 -12.0625 6.0625 C-13.16722656 6.05347656 -14.27195312 6.04445312 -15.41015625 6.03515625 C-16.69212891 6.01775391 -16.69212891 6.01775391 -18 6 C-18 5.34 -18 4.68 -18 4 C-14.04 4 -10.08 4 -6 4 C-6 3.34 -6 2.68 -6 2 C-4.02 2 -2.04 2 0 2 C0 1.34 0 0.68 0 0 Z " fill="#D7BC7B" transform="translate(125,160)"/>
<path d="M0 0 C2.64 0 5.28 0 8 0 C8 0.66 8 1.32 8 2 C7.34 2 6.68 2 6 2 C6 2.66 6 3.32 6 4 C1.38 4 -3.24 4 -8 4 C-8 3.34 -8 2.68 -8 2 C-5.36 2 -2.72 2 0 2 C0 1.34 0 0.68 0 0 Z " fill="#DABC74" transform="translate(95,176)"/>
<path d="M0 0 C2.64 0 5.28 0 8 0 C8 0.66 8 1.32 8 2 C8.66 2 9.32 2 10 2 C10 2.66 10 3.32 10 4 C9.34 4 8.68 4 8 4 C8 4.66 8 5.32 8 6 C7.34 6 6.68 6 6 6 C6 5.34 6 4.68 6 4 C3.36 4 0.72 4 -2 4 C-2 3.34 -2 2.68 -2 2 C-1.34 2 -0.68 2 0 2 C0 1.34 0 0.68 0 0 Z " fill="#E5C579" transform="translate(165,96)"/>
<path d="M0 0 C3.96 0 7.92 0 12 0 C12 0.66 12 1.32 12 2 C11.34 2 10.68 2 10 2 C10 2.66 10 3.32 10 4 C7.36 4 4.72 4 2 4 C2 3.34 2 2.68 2 2 C1.34 2 0.68 2 0 2 C0 1.34 0 0.68 0 0 Z " fill="#D7BF7E" transform="translate(129,84)"/>
<path d="M0 0 C1.32 0 2.64 0 4 0 C4 0.66 4 1.32 4 2 C3.34 2 2.68 2 2 2 C2 4.64 2 7.28 2 10 C1.34 10 0.68 10 0 10 C0 9.34 0 8.68 0 8 C-0.66 8 -1.32 8 -2 8 C-2 6.02 -2 4.04 -2 2 C-1.34 2 -0.68 2 0 2 C0 1.34 0 0.68 0 0 Z " fill="#DFC578" transform="translate(99,118)"/>
<path d="M0 0 C0.66 0 1.32 0 2 0 C2 0.66 2 1.32 2 2 C2.66 2 3.32 2 4 2 C4 2.66 4 3.32 4 4 C3.34 4 2.68 4 2 4 C2 4.66 2 5.32 2 6 C-0.64 6 -3.28 6 -6 6 C-6 5.34 -6 4.68 -6 4 C-4.02 4 -2.04 4 0 4 C0 2.68 0 1.36 0 0 Z " fill="#E5C276" transform="translate(171,172)"/>
<path d="M0 0 C0.66 0 1.32 0 2 0 C2 1.32 2 2.64 2 4 C2.66 4 3.32 4 4 4 C4 4.66 4 5.32 4 6 C4.66 6 5.32 6 6 6 C6 6.66 6 7.32 6 8 C4.02 8 2.04 8 0 8 C0 5.36 0 2.72 0 0 Z " fill="#D9BE79" transform="translate(61,142)"/>
<path d="M0 0 C0.66 0 1.32 0 2 0 C2 1.98 2 3.96 2 6 C2.66 6 3.32 6 4 6 C4 7.98 4 9.96 4 12 C3.34 12 2.68 12 2 12 C2 10.68 2 9.36 2 8 C1.34 8 0.68 8 0 8 C0 5.36 0 2.72 0 0 Z " fill="#E1BF7B" transform="translate(45,134)"/>
<path d="M0 0 C1.32 0 2.64 0 4 0 C4 1.98 4 3.96 4 6 C2.68 6 1.36 6 0 6 C0 5.34 0 4.68 0 4 C-0.66 4 -1.32 4 -2 4 C-2 3.34 -2 2.68 -2 2 C-1.34 2 -0.68 2 0 2 C0 1.34 0 0.68 0 0 Z " fill="#F1BD66" transform="translate(185,104)"/>
<path d="M0 0 C1.98 0 3.96 0 6 0 C6 1.32 6 2.64 6 4 C3.36 4 0.72 4 -2 4 C-2 3.34 -2 2.68 -2 2 C-1.34 2 -0.68 2 0 2 C0 1.34 0 0.68 0 0 Z " fill="#EAC262" transform="translate(195,104)"/>
<path d="M0 0 C3.3 0 6.6 0 10 0 C10 0.66 10 1.32 10 2 C10.66 2 11.32 2 12 2 C12 2.66 12 3.32 12 4 C10.68 4 9.36 4 8 4 C8 3.34 8 2.68 8 2 C5.36 2 2.72 2 0 2 C0 1.34 0 0.68 0 0 Z " fill="#E8C27A" transform="translate(113,78)"/>
<path d="M0 0 C3.3 0 6.6 0 10 0 C10 0.66 10 1.32 10 2 C8.68 2 7.36 2 6 2 C6 2.66 6 3.32 6 4 C4.68 4 3.36 4 2 4 C2 3.34 2 2.68 2 2 C1.34 2 0.68 2 0 2 C0 1.34 0 0.68 0 0 Z " fill="#EDC160" transform="translate(69,74)"/>
<path d="M0 0 C0.66 0 1.32 0 2 0 C2 0.66 2 1.32 2 2 C3.32 2 4.64 2 6 2 C6 2.66 6 3.32 6 4 C7.32 4 8.64 4 10 4 C10 4.66 10 5.32 10 6 C8.02 6 6.04 6 4 6 C4 5.34 4 4.68 4 4 C2.68 4 1.36 4 0 4 C0 2.68 0 1.36 0 0 Z " fill="#E3C47B" transform="translate(127,70)"/>
<path d="M0 0 C1.32 0 2.64 0 4 0 C4 1.32 4 2.64 4 4 C3.34 4 2.68 4 2 4 C2 4.66 2 5.32 2 6 C1.34 6 0.68 6 0 6 C0 5.34 0 4.68 0 4 C-0.66 4 -1.32 4 -2 4 C-2 3.34 -2 2.68 -2 2 C-1.34 2 -0.68 2 0 2 C0 1.34 0 0.68 0 0 Z " fill="#D9B878" transform="translate(189,96)"/>
<path d="M0 0 C1.98 0 3.96 0 6 0 C6 1.32 6 2.64 6 4 C4.02 4 2.04 4 0 4 C0 2.68 0 1.36 0 0 Z " fill="#EEC15F" transform="translate(133,78)"/>
<path d="M0 0 C1.98 0 3.96 0 6 0 C6 0.66 6 1.32 6 2 C4.68 2 3.36 2 2 2 C2 2.66 2 3.32 2 4 C0.68 4 -0.64 4 -2 4 C-2 3.34 -2 2.68 -2 2 C-1.34 2 -0.68 2 0 2 C0 1.34 0 0.68 0 0 Z " fill="#E2C17C" transform="translate(133,168)"/>
<path d="M0 0 C1.98 0 3.96 0 6 0 C6 1.32 6 2.64 6 4 C5.34 4 4.68 4 4 4 C4 3.34 4 2.68 4 2 C3.34 2 2.68 2 2 2 C2 2.66 2 3.32 2 4 C1.34 4 0.68 4 0 4 C0 2.68 0 1.36 0 0 Z " fill="#E8C25E" transform="translate(73,168)"/>
<path d="M0 0 C0.66 0 1.32 0 2 0 C2 1.98 2 3.96 2 6 C2.66 6 3.32 6 4 6 C4 6.66 4 7.32 4 8 C2.68 8 1.36 8 0 8 C0 5.36 0 2.72 0 0 Z " fill="#B9AB82" transform="translate(175,100)"/>
<path d="M0 0 C1.32 0 2.64 0 4 0 C4 0.66 4 1.32 4 2 C3.34 2 2.68 2 2 2 C2 2.66 2 3.32 2 4 C0.02 4 -1.96 4 -4 4 C-4 3.34 -4 2.68 -4 2 C-2.68 2 -1.36 2 0 2 C0 1.34 0 0.68 0 0 Z " fill="#D1B982" transform="translate(75,68)"/>
</svg>
